<svg width="560" height="240" viewBox="0 0 560 240" xmlns="http://www.w3.org/2000/svg"><defs><linearGradient x1="54.288%" y1="50%" x2="54.288%" y2="0%" id="a"><stop stop-color="#D7EEFF" stop-opacity=".996" offset="0%"/><stop stop-color="#D7EEFF" stop-opacity="0" offset="100%"/></linearGradient><linearGradient x1="50%" y1="0%" x2="50%" y2="100%" id="b"><stop stop-color="#FFF" offset="0%"/><stop stop-color="#FFF" stop-opacity="0" offset="100%"/></linearGradient><linearGradient x1="50%" y1="0%" x2="50%" y2="100%" id="c"><stop stop-color="#FFF" offset="0%"/><stop stop-color="#FFF" stop-opacity="0" offset="100%"/></linearGradient><linearGradient x1="50%" y1="0%" x2="50%" y2="100%" id="d"><stop stop-color="#FFF" offset="0%"/><stop stop-color="#FFF" stop-opacity=".2" offset="100%"/></linearGradient></defs><g fill="none" fill-rule="evenodd"><polygon fill="url(#a)" points="0 -4.8461235e-13 560 -4.8461235e-13 560 240 0 240"/><path d="M-5.68434189e-14,78.291245 C3.74724068,80.3341325 5.90536916,81.8685445 6.47438544,82.8944811 C8.65823535,82.1784371 12.2765319,84.1092287 13.1472414,85.5345774 C15.5312467,84.9189481 26.8174477,92.2532602 30.2430021,92.2532602 C33.6685565,92.2532602 32.1454888,89.9282233 31.6188174,88.5463426 C31.092146,87.164462 27.8081156,73.9680241 45.3136219,75.3640572 C43.2392846,67.5937164 50.2282108,62.8674891 56.2824048,64.6136256 C57.3397912,49.0736179 74.5066508,55.4762304 74.946386,60.4841578 C82.8087174,54.8203125 91.4885184,61.657796 90.6087109,67.0380662 C94.6498947,64.6136256 99.1567597,66.8978901 100.281875,68.2622487 C103.837497,66.0275176 111.242234,70.990966 111.242234,71.9944384 C112.182021,70.6506345 113.33342,70.6506345 114.114834,71.9944384 C116.783235,65.1022203 128.626434,62.3371111 135.986019,68.8505842 C139.979354,66.5875482 148.093059,68.2531507 149.790673,71.379483 C155.003136,68.8505842 162.676095,71.3791461 165.257223,74.6122952 C169.830132,71.9944384 179.772529,76.2266796 181.567188,79.5605803 C184.437429,80.0970237 186.953187,81.2544877 186.953187,82.8944811 C195.686565,81.3461413 204.129144,83.8073108 204.129144,94.0900394 C209.185931,94.0900394 212.895208,95.3492659 214.192174,97.8700777 C225.06189,95.7644029 229.055562,99.1522176 232.109784,101.058411 C239.256072,99.1151518 250.685482,104.502498 252.994344,109.386761 C263.15543,110.820533 274.287639,115.881027 278.7972,120.634885 C290.321633,119.872677 304.445053,125.581822 311.940096,130.187754 C319.435139,134.793686 343.974724,132.414735 340.714281,149.351787 C338.540652,160.643154 224.969225,160.643154 -5.68434189e-14,149.351787 L-5.68434189e-14,78.291245 Z" fill="url(#b)"/><path d="M361.358999,95.3156854 C363.541791,96.6643878 364.798915,97.6773977 365.130371,98.3547151 C366.402477,97.881987 368.510158,99.1566843 369.017352,100.097691 C370.406051,99.6912564 376.980335,104.533327 378.975743,104.533327 C380.97115,104.533327 380.083953,102.998351 379.777164,102.086041 C379.470374,101.173732 377.557406,92.4615202 387.754476,93.3831731 C386.546161,88.2532393 390.617255,85.1330116 394.143862,86.2858007 C394.759797,76.0263782 404.759603,80.2533457 405.015751,83.5595502 C409.59561,79.8203125 414.65165,84.3343793 414.139156,87.8864023 C416.493172,86.2858007 419.11845,87.7938589 419.773837,88.6946005 C421.845009,87.219244 426.158316,90.4960837 426.158316,91.1585704 C426.705748,90.2713989 427.376445,90.2713989 427.831624,91.1585704 C429.385985,86.6083681 436.284725,84.7828592 440.57173,89.0830161 C442.897873,87.588973 447.624159,88.6885941 448.61303,90.7525804 C451.649323,89.0830161 456.118871,90.752358 457.622395,92.8868642 C460.286144,91.1585704 466.077654,93.9526713 467.123054,96.1536932 C468.794988,96.50785 470.260433,97.272001 470.260433,98.3547151 C475.347682,97.3325102 480.265539,98.95736 480.265539,105.745957 C483.21115,105.745957 485.371827,106.577291 486.127318,108.241517 C492.458998,106.851362 494.785338,109.087978 496.564442,110.346436 C500.7272,109.063507 507.384905,112.620202 508.729832,115.844764 C514.64873,116.791332 521.133314,120.13224 523.760162,123.27071 C530.473218,122.767505 538.700201,126.536649 543.066112,129.577458 C547.432023,132.618268 561.726489,131.047698 559.82726,142.229441 C558.561107,149.683936 492.40502,149.683936 361.358999,142.229441 L361.358999,95.3156854 Z" fill="url(#c)" transform="matrix(-1 0 0 1 921.359 0)"/><path d="M-6.25277607e-13,33.2800293 C6.24804687,33.2800293 9.08984375,39.8046875 9.08984375,39.8046875 C9.08984375,39.8046875 14.3320312,38.0722656 19.6376953,44.4248047 C25.3154297,44.4248047 32.2871094,42.4130859 37.1806641,59.4755859 C43.7177734,59.4755859 47.2774658,62.7227783 48.0820312,65.9960937 C66.9423828,61.3535156 72.234375,67.8525391 74.5859375,69 C85.5986328,65.9960937 92.7246094,77.7834473 93.1611328,79.546875 C109.758301,76.9287109 145.079346,84.3620605 153.2229,87.1516113 C160.597168,85.2714844 202.310791,86.1027832 203.165283,88.439209 C204.019775,90.7756348 202.17749,91.6669922 199.172607,92.1669922 C199.426839,93.5644531 202.711426,94.0788574 209.026367,93.7102051 C227.206217,93.7102051 237.778971,93.7102051 240.744629,93.7102051 C245.193115,93.7102051 247.151123,94.4072266 238.858643,95.0615234 C230.566162,95.7158203 191.243164,99.418457 187.656738,98.4421387 C185.265788,97.7912598 122.713542,97.7912598 -6.25277607e-13,98.4421387 C-6.25277607e-13,59.7858887 -6.25277607e-13,38.0651855 -6.25277607e-13,33.2800293 Z" fill="url(#d)"/><g transform="translate(191 122)"><path d="M0,0 C9.94896488,0 17.0896963,2.0491766 21.4221941,6.14752979 C26.2385305,3.43773973 29.4114515,0.728658242 40.3382182,9.31903206 C57.0775175,2.69240771 69.9921922,-6.07154954 113.744745,11.1366071 C127.492252,8.24093312 131.849249,11.1366071 133.561041,13.5751961 C142.710671,13.5751961 148.805085,15.6604579 151.844284,19.8309815 C156.333467,19.8985243 160.022489,20.4364427 162.911351,21.4447366 C169.752753,19.8309815 182.629407,20.4709214 176.339179,20.5682965 C179.360868,20.0767532 184.972239,20.5868788 193.173293,22.0986734 C206.80634,20.5854246 218.031111,20.3674456 226.847608,21.4447366 C235.664104,22.5220276 241.327688,24.6856585 243.838358,27.9356291 C249.543904,27.0039267 254.733307,27.0039267 259.406567,27.9356291 C266.416456,29.3331827 272.304585,35.2472147 272.871552,36.2642343 C275.193233,34.9575726 281.236396,34.2912744 289.495536,36.8425491 C295.001628,38.5433988 297.984665,39.6219825 298.444645,40.0783002 C301.726006,35.5253035 310.470751,33.9829692 324.678879,35.4512973 C328.136096,34.8914033 335.469189,32.3149213 344.730611,36.8425491 C350.742382,34.8914033 358.626747,38.1303053 359.928208,42.6000046 C364.309336,42.3705531 367.333267,44.3877874 369,48.6517075 L369,52.1981876 L0,82.1981876 L0,0 Z" fill="#047266" transform="matrix(-1 0 0 1 369 0)"/><path d="M327.625347,38.2102525 C331.012141,38.2102525 334.791764,39.6113773 336.393842,39.6113773 C337.99592,39.6113773 341.305173,38.2102525 343.003376,38.2102525 C344.135511,38.2102525 346.283364,39.2677009 349.446935,41.3825978 C351.831254,40.8909763 355.377828,41.3050304 360.086657,42.6247602 C367.149899,44.604355 359.554767,45.8664626 356.344202,44.2868856 C353.133637,42.7073087 350.309493,43.4180689 346.700332,42.1908438 C344.294224,41.3726937 342.004106,41.1032783 339.829979,41.3825978 C339.232297,43.2911298 336.938976,43.57629 332.950014,42.2380785 C328.961053,40.8998669 324.858024,40.6147067 320.640927,41.3825978 C315.261362,41.1428788 311.610973,41.428039 309.689761,42.2380785 C307.768549,43.048118 304.854048,43.4414481 300.946259,43.4180689 C301.622549,42.2094675 302.795911,41.1786429 304.466345,40.3255951 C306.136778,39.4725472 310.579021,38.7674331 317.793073,38.2102525 L317.793073,38.2102525 Z M147.890752,20.9048988 C142.070081,18.2935094 161.883303,22.9774144 164.357553,24.5066109 C165.980012,25.5093627 171.193192,24.539488 176.716306,23.7528628 L177.546688,23.6365129 C180.180993,23.2741303 182.848215,22.9774144 185.196746,22.9774144 C192.736767,22.9774144 192.684219,24.5066109 197.303972,25.7878563 C201.923725,27.0691016 204.169197,25.7878563 210.033445,25.7878563 C212.200666,25.7878563 213.860075,25.6128658 215.521796,25.3922256 L216.109213,25.3126677 C218.760494,24.9480229 221.568993,24.5066109 226.578427,24.5066109 C235.113018,24.5066109 237.487298,26.2279448 241.564908,28.5192698 C244.283314,30.0468199 246.272027,30.9643707 247.531047,31.2719222 C250.925317,30.6601119 256.128226,31.6665695 263.139775,34.291295 C270.501901,37.0472567 265.371246,38.2661241 260.418695,38.2082907 L259.994923,38.200213 C258.022111,38.147983 256.13572,37.8926712 255.146686,37.4509428 C252.791845,36.3992086 250.555985,35.3459927 248.439105,34.291295 C247.030558,34.7219989 245.252038,34.9373508 243.103544,34.9373508 C239.880803,34.9373508 240.3563,32.8850862 240.3563,31.2719222 C240.3563,29.6587583 236.506826,29.1880463 231.930009,27.6933791 C227.353192,26.1987118 218.991625,28.5192698 213.857285,29.1880463 C208.722945,29.8568228 202.813198,29.1880463 199.809622,28.5192698 C196.806046,27.8504933 196.402322,27.5896064 196.402322,28.5192698 C196.402322,29.1390454 198.539281,30.0565962 202.813198,31.2719222 C207.626696,30.7740443 210.033445,31.3117656 210.033445,32.8850862 C210.033445,35.245067 199.56162,34.291295 197.303972,34.291295 C195.046323,34.291295 193.074485,32.8850862 190.057451,32.8850862 C187.040418,32.8850862 184.011849,31.5658085 177.656725,29.1880463 C171.301601,26.8102841 164.875985,27.5896064 161.883303,27.5896064 C158.890621,27.5896064 153.711423,23.5162883 147.890752,20.9048988 Z M73.8048862,8.00008105 C86.9156538,8.00008105 92.9042223,11.965817 94.6774025,12.9146498 C96.4505827,13.8634826 103.904732,13.9153449 106.349504,14.7234086 C108.794275,15.5314724 111.941398,18.0050563 115.11159,18.0050563 C117.225052,18.0050563 121.739922,19.2821856 128.6562,21.8364442 L136.17,25.3590811 L136.081477,25.3234419 C133.912857,24.4850016 131.437764,24.3452616 128.6562,24.9042217 C123.649385,25.91035 124.20755,28.9228078 119.65957,26.9135148 C115.11159,24.9042217 109.517133,21.8364442 106.349504,21.8364442 C106.349504,19.9066734 102.372932,16.4884277 98.525167,16.4884277 C94.6774025,16.4884277 93.1520106,16.9055759 95.8385888,20.9048988 C98.525167,24.9042217 92.1877729,20.9048988 86.9393645,20.9048988 C83.4404256,20.9048988 81.6174742,21.215414 81.4705102,21.8364442 C81.6875384,17.6930594 79.1323304,15.3220476 73.8048862,14.7234086 C68.477442,14.1247697 64.2889687,14.478915 61.2394661,15.7858445 C61.2377572,16.8451887 60.8304021,16.4910433 60.0174008,14.7234086 C58.7978989,12.0719566 60.6941187,8.00008105 73.8048862,8.00008105 Z M14.8958282,14.7648985 C9.22190791,10.7058104 32.1188102,11.6753882 38.1829968,14.7648985 C44.2471834,17.8544087 37.2499464,20.9048988 34.7603168,20.9048988 C32.2706872,20.9048988 20.5697486,18.8239865 14.8958282,14.7648985 Z" fill="#10B19F" transform="matrix(-1 0 0 1 377 0)"/></g><g transform="translate(0 93.016)"><path d="M0,0.983927539 C0.611653646,-0.565551628 1.82063802,-0.284952669 3.62695312,1.82572441 C7.70507812,0.983927539 10.2259129,0.556625958 9.63183594,4.52689629 C14.2016602,4.52689629 14.1363351,4.53530796 13.2485352,6.52054863 C15.7006836,5.62162285 16.081822,5.67201589 17.0361328,7.25638848 C20.7070312,4.52689629 27.7519531,2.54886895 36.0800781,11.201701 C48.8383789,4.52689629 58.6816406,-4.30078125 92.0288086,13.0324911 C102.506836,10.1157635 105.827637,13.0324911 107.132324,15.4888104 C114.105957,15.4888104 118.750977,17.5892335 121.067383,21.7900799 C124.488932,21.8581137 127.300618,22.3999432 129.502441,23.4155682 C134.716797,21.7900799 144.531081,22.4346726 139.736816,22.5327557 C142.039876,22.0376385 146.316732,22.5514731 152.567383,24.0742596 C162.958171,22.5500083 171.513428,22.3304445 178.233154,23.4155682 C184.952881,24.5006919 189.269531,26.6800538 191.183105,29.9536541 C195.531738,29.0151775 199.486979,29.0151775 203.048828,29.9536541 C208.391602,31.3613689 212.879395,37.3184002 213.311523,38.3428143 C215.081055,37.0266521 219.687012,36.3555096 225.981934,38.9253338 C230.178548,40.6385499 232.452148,41.7249757 232.802734,42.1846111 C235.303711,37.5985109 241.96875,36.0449627 252.797852,37.5239666 C255.432861,36.9600018 261.021973,34.3647869 268.080811,38.9253338 C272.662842,36.9600018 278.672119,40.2224529 279.664062,44.7246502 C283.003255,44.4935304 285.308024,46.5254314 286.578369,50.8203533 L286.578369,54.3926189 L0,54.3926189 L0,0.983927539 Z" fill="#19625A"/><path d="M252.004395,37.2579963 C254.584961,37.2579963 257.464844,38.6431072 258.685547,38.6431072 C259.90625,38.6431072 262.427734,37.2579963 263.72168,37.2579963 C264.58431,37.2579963 266.220866,38.3033588 268.631348,40.3940838 C270.448079,39.9080812 273.150391,40.317403 276.738281,41.6220491 C282.120117,43.5790184 276.333008,44.826701 273.886719,43.2651775 C271.44043,41.7036541 269.288574,42.4062908 266.538574,41.193092 C264.705241,40.3842929 262.960286,40.1179568 261.303711,40.3940838 C260.848307,42.2808025 259.100911,42.5627036 256.061523,41.2397869 C253.022135,39.9168702 249.895833,39.6349692 246.682617,40.3940838 C242.583659,40.1571046 239.802246,40.4390057 238.338379,41.2397869 C236.874512,42.0405682 234.653809,42.4294028 231.67627,42.4062908 C232.191569,41.2115029 233.085612,40.19246 234.358398,39.3491619 C235.631185,38.5058639 239.015951,37.8088087 244.512695,37.2579963 L244.512695,37.2579963 Z M115.055664,20.1504314 C112.607142,18.7252046 116.111816,19.4981404 120.059902,20.7308854 L120.508453,20.8723124 C123.582452,21.8508758 126.797379,23.0653484 127.602539,23.7109783 C129.487793,25.2226971 137.73584,22.1992596 143.480957,22.1992596 C146.745228,22.1992596 148.141874,22.6872886 149.385054,23.3410965 L149.681348,23.5010283 C150.517474,23.962252 151.346047,24.4882111 152.706055,24.9775799 C156.226074,26.2441814 157.937012,24.9775799 162.405273,24.9775799 C166.873535,24.9775799 168.508789,23.7109783 175.011719,23.7109783 C181.514648,23.7109783 183.32373,25.4126385 186.430664,27.6777752 C188.501953,29.1878663 190.017253,30.0949301 190.976562,30.3989666 C193.562826,29.7941489 197.527181,30.7891033 202.869629,33.3838299 C210.883301,37.2759197 199.470703,38.0669354 196.779297,36.507365 C194.985026,35.4676515 193.281413,34.4264731 191.668457,33.3838299 C190.595215,33.8096111 189.240072,34.0225018 187.603027,34.0225018 C185.568415,34.0225018 185.468358,32.6296626 185.493845,31.244974 L185.500316,30.9590625 C185.505033,30.7691452 185.509766,30.5812211 185.509766,30.3989666 C185.509766,28.80424 182.57666,28.338908 179.089355,26.8613238 C175.602051,25.3837396 169.230957,27.6777752 165.318848,28.338908 C161.406738,29.0000408 156.903809,28.338908 154.615234,27.6777752 C154.393759,27.6137946 154.190837,27.5535903 154.004949,27.4978636 L153.65544,27.392588 C152.235431,26.9640648 152.019043,26.9069692 152.019043,27.6777752 C152.019043,28.2904672 153.647298,29.197531 156.903809,30.3989666 C160.571452,29.9067791 162.405273,30.4383546 162.405273,31.9936932 C162.405273,34.326701 154.42627,33.3838299 152.706055,33.3838299 C150.98584,33.3838299 149.483398,31.9936932 147.18457,31.9936932 C144.885742,31.9936932 142.578125,30.6894939 137.73584,28.338908 C132.893555,25.9883221 127.997559,26.7587372 125.717285,26.7587372 C123.437012,26.7587372 119.490723,22.7319744 115.055664,20.1504314 Z M58.605957,7.39310723 C68.5957031,7.39310723 73.1586914,11.3135174 74.5097656,12.2515057 C75.1402669,12.6892335 76.713444,12.9338538 78.4014719,13.1514573 L79.1295307,13.2435462 C80.8334787,13.4568203 82.5340169,13.6668051 83.4033203,14.0395916 C85.2661133,14.8384197 87.6640625,17.2837322 90.0795898,17.2837322 C91.6899414,17.2837322 95.1300456,18.5462648 100.399902,21.0713299 L106.131639,24.5571072 L106.014432,24.4970078 C104.372394,23.6872658 102.500885,23.5562781 100.399902,24.1040447 C96.5849609,25.0986736 97.0102539,28.076701 93.5449219,26.0903729 C92.7048414,25.6088388 91.8179002,25.065809 90.9218033,24.5193993 L90.2486031,24.1098662 C87.6659381,22.5445219 85.0855084,21.0713299 83.4033203,21.0713299 C83.4033203,19.163615 80.3733721,15.7844377 77.4415689,15.7844377 C74.5097656,15.7844377 73.3474936,16.1968182 75.3945312,20.1504314 C75.9489373,21.2212017 76.3907296,22.0108092 76.7199081,22.519254 L76.7446387,22.5561072 L76.5704671,22.4614948 C73.6896526,20.9207859 71.0374201,20.1504314 68.6137695,20.1504314 C65.9477539,20.1504314 64.5587565,20.4573976 64.4467773,21.0713299 C64.6121419,16.9753012 62.6652018,14.6313885 58.605957,14.0395916 C54.5467122,13.4477947 51.355306,13.7978924 49.0317383,15.0898846 C49.0304362,16.1371211 48.7200521,15.7870234 48.1005859,14.0395916 C47.1713867,11.4184439 48.6162109,7.39310723 58.605957,7.39310723 Z M76.7446387,22.5561072 L77.0043036,22.6983788 L77.0043036,22.6983788 L77.4415689,22.9468182 C77.4415689,23.3807781 77.2256704,23.2757042 76.7938734,22.6315964 L76.7446387,22.5561072 Z M13.7202148,14.0806072 C9.39697266,10.0679119 26.8432617,11.026408 31.4638672,14.0806072 C36.0844727,17.1348064 30.7529297,20.1504314 28.855957,20.1504314 C26.9589844,20.1504314 18.043457,18.0933025 13.7202148,14.0806072 Z" fill="#10B19F"/></g><path d="M0,240 L0,128.664817 C201.466601,122.468943 388.133268,159.58067 560,240 C490.304846,240 303.638179,240 0,240 Z" fill="#10B19F"/><path d="M0,240 L0,135.825738 C193.441406,136.560012 364.973307,171.284766 514.595703,240 C435.410807,240 263.878906,240 0,240 Z" fill="#047266"/><path d="M0,239.972098 L0,192.214007 C90.456621,157.404669 187.710786,140 291.762495,140 C395.814203,140 485.226705,159.514509 560,198.543527 L560,239.972098 L0,239.972098 Z" fill="#10B19F"/><path d="M0,240 L0,185.09727 C72.5261309,165.040968 160.578446,153.053542 264.156946,149.134993 C367.735445,145.216444 466.349797,156.857954 560,184.059523 L560,240 L0,240 Z" fill="#008576"/><g transform="translate(489 81)"><path d="M5.85549769,111 L5.85549769,104.863978 C1.95183256,102.154679 0,99.081913 0,95.6456791 C0,90.4913282 0,88.6930118 0,86.0402639 C0,84.2717653 0.356501496,76.4638953 1.06950449,62.6166539 C2.30833406,46.9042634 2.92774884,37.2253322 2.92774884,33.5798602 C2.92774884,28.1116522 4.45049327,27.1137871 4.45049327,24.7918615 C4.45049327,22.469936 5.85549769,18.302654 5.85549769,16.0647835 C5.85549769,14.5728699 6.23930121,11.1790491 7.00690826,5.88332108 L8.17958292,9.29102256 L9.83503095,3 C10.9003351,5.5622666 11.4329872,8.38029718 11.4329872,11.4540917 C11.4329872,16.0647835 14.9998398,61.5524702 14.9998398,65.4328852 C14.9998398,69.3133002 14.9998398,83.1862464 14.9998398,87.6966891 C14.9998398,92.2071317 15.0526062,96.0829198 13.2427967,99.270073 C12.0362571,101.394842 10.3485191,103.259477 8.17958292,104.863978 L8.17958292,111 L5.85549769,111 Z" fill="#115B53"/><path d="M17.6214945,123 L17.6214945,117.613106 C14.6719514,115.748999 13.1971798,113.54753 13.1971798,111.008697 C13.1971798,107.200447 11.3265864,104.339539 12.2618831,98.7703451 C13.1971798,93.2011512 13.1971798,83.0220522 13.1971798,81.3262423 C13.1971798,79.6304324 13.9011665,61.4794852 13.9011665,60.89366 C13.9011665,60.3078347 14.8107472,46.0264174 14.8107472,43.9748729 C14.8107472,41.9233283 16.4504181,34.4752541 17.0359563,33.8767103 C17.4263151,33.4776811 18.1207415,32.5187776 19.1192357,31 C20.4318544,35.8893283 21.0881637,38.8972069 21.0881637,40.0236358 C21.0881637,41.7132791 22.9233716,47.4393354 22.9233716,48.7836502 C22.9233716,50.1279649 23.5647817,62.2402872 24.488904,68.9310281 C25.1049856,73.3915221 25.3463525,77.3175789 25.2130047,80.7091988 C24.7861429,85.0486735 24.7861429,87.3987834 25.2130047,87.7595285 C25.8532974,88.300646 26.0425172,91.9477935 25.9479073,92.9633524 C25.884834,93.6403917 26.1884051,96.9206276 26.8586203,102.80406 C27.2879653,106.285095 26.7394268,109.019974 25.2130047,111.008697 C23.6865826,112.997419 21.9800045,115.198889 20.0932703,117.613106 L20.0932703,122.243823 L20.0932703,123 L17.6214945,123 Z" fill="#19625A"/><path d="M43.0509516,118 L43.0509516,111.130572 C40.6992762,109.746573 39.2670546,108.40852 38.754287,107.116411 C37.9851356,105.178249 35.4097454,103.049119 36.1237445,97.8664391 C36.5997439,94.4113194 36.9776119,89.0892646 37.2573485,81.9002747 L37.9068789,64.3917424 C38.9859435,56.5880128 39.5254758,51.8414263 39.5254758,50.1519828 C39.5254758,47.6178177 39.0084105,33.3457169 39.5254758,31.9157732 C40.0425411,30.4858295 39.581572,21.0945569 40.6581604,18.6042834 C41.375886,16.9441011 41.9887724,13.796608 42.4968198,9.16180396 L43.0509516,1.55006819 L44.7845235,4.16354631 L46.2810894,0 C47.2268774,4.22232518 47.6997713,7.1092919 47.6997713,8.66090015 C47.6997713,10.9883125 47.3811548,21.3398111 48.5851898,27.9004574 C49.7892248,34.4611038 50.318389,41.7555876 50.318389,47.3991295 C50.318389,53.0426713 51.8552013,59.4481568 51.3275276,65.6480446 C50.799854,71.8479323 52.9802342,70.9716394 52.9802342,79.1008346 C52.9802342,87.2300298 53.1878008,95.8039167 52.2576642,99.4892751 C51.3275276,103.174633 49.4635279,110.124914 47.1240257,110.124914 C45.5643576,110.124914 45.0433917,112.749943 45.561128,118 L43.0509516,118 Z" fill="#115B53"/></g></g></svg>