<svg width="1168" height="56" viewBox="0 0 1168 56" xmlns="http://www.w3.org/2000/svg"><g fill="none" fill-rule="evenodd"><g transform="translate(920)"><g transform="translate(171.771 43)" fill-rule="nonzero"><rect fill="#24253D" width="36" height="8"/><g transform="translate(6 3)"><g transform="translate(14)"><circle fill="#585A69" cx="5" cy="5" r="5"/><circle fill="#91929E" cx="5" cy="5" r="2"/></g><circle fill="#585A69" cx="5" cy="5" r="5"/><circle fill="#91929E" cx="5" cy="5" r="2"/></g></g><g transform="translate(10 43)" fill-rule="nonzero"><rect fill="#24253D" transform="matrix(-1 0 0 1 36 0)" width="36" height="8"/><g transform="translate(6 3)"><g transform="matrix(-1 0 0 1 10 0)"><circle fill="#585A69" cx="5" cy="5" r="5"/><circle fill="#91929E" cx="5" cy="5" r="2"/></g><g transform="matrix(-1 0 0 1 24 0)"><circle fill="#585A69" cx="5" cy="5" r="5"/><circle fill="#91929E" cx="5" cy="5" r="2"/></g></g></g><path d="M56.1919155 8 184.310312 8C184.87822 8 185.332547 7.67123288 185.55971 7.23287671L189.307904 0 51.3079044 0 55.0560989 7.23287671C55.2832622 7.78082192 55.7375889 8 56.1919155 8ZM216.500317 7.22222222C216.762343 7.66666667 217.286394 8 217.941459 8L228.307904 8 228.307904 0 212.307904 0 216.500317 7.22222222ZM0 0C1.86190257 1.09988368 18.0137011 8 19.3575368 8 20.2534272 8 21.2332352 8 22.2969609 8 22.8568924 8 23.3048376 7.67750325 23.5288102 7.24750759L27.2243582.152579107C13.529608.152579107 4.45482195.101719405 0 0Z" transform="matrix(-1 0 0 1 229.308 44)" fill="#91929E" fill-rule="nonzero"/><path d="M1,34.295352 C1,23.4013943 36.9813407,1.5 58.5888044,1.5 L105.660178,1.5 L106,0 L186,0 L186.109662,1.5 L248,1.5 L248,45.3027885 L17.9168199,45.3027885 C14.894014,45.1893098 1,45.1893098 1,34.295352 Z" fill="#FFF" fill-rule="nonzero" transform="matrix(-1 0 0 1 249 0)"/><path d="M1.69597369,16 L220,16 L220,0 L22.7585132,0 C21.1900262,0 19.6215392,0.444444444 18.2771218,1.33333333 L0.799695418,12.8888889 C-0.656756781,13.7777778 0.0154519259,16 1.69597369,16 Z" transform="matrix(-1 0 0 1 221 10)" fill="#008576" fill-rule="nonzero"/><path d="M26.9972592 3C26.9972592 1.375 28.2273736 0 29.6811452 0L246.997259 0 246.997259 6 29.6811452 6C28.2273736 6 26.9972592 4.625 26.9972592 3ZM20.1937765 0 .509915956 0C-.214868643 1.75584606-.123543663 4.43110565.509915956 6 4.19137634 6 10.7526632 6 20.1937765 6 21.7138158 6 23 4.625 23 3 23 1.25 21.7138158 0 20.1937765 0Z" transform="matrix(-1 0 0 1 247.997 32)" fill="#D30741" fill-rule="nonzero"/><path d="M17 0 29 0C29.5522847-1.01453063e-16 30 .44771525 30 1L30 11C30 11.5522847 29.5522847 12 29 12L17 12C16.4477153 12 16 11.5522847 16 11L16 1C16 .44771525 16.4477153 1.01453063e-16 17 0ZM33 0 45 0C45.5522847-1.01453063e-16 46 .44771525 46 1L46 11C46 11.5522847 45.5522847 12 45 12L33 12C32.4477153 12 32 11.5522847 32 11L32 1C32 .44771525 32.4477153 1.01453063e-16 33 0ZM49 0 61 0C61.5522847-1.01453063e-16 62 .44771525 62 1L62 11C62 11.5522847 61.5522847 12 61 12L49 12C48.4477153 12 48 11.5522847 48 11L48 1C48 .44771525 48.4477153 1.01453063e-16 49 0ZM65 0 77 0C77.5522847-1.01453063e-16 78 .44771525 78 1L78 11C78 11.5522847 77.5522847 12 77 12L65 12C64.4477153 12 64 11.5522847 64 11L64 1C64 .44771525 64.4477153 1.01453063e-16 65 0ZM81 0 93 0C93.5522847-1.01453063e-16 94 .44771525 94 1L94 11C94 11.5522847 93.5522847 12 93 12L81 12C80.4477153 12 80 11.5522847 80 11L80 1C80 .44771525 80.4477153 1.01453063e-16 81 0ZM97 0 109 0C109.552285-1.01453063e-16 110 .44771525 110 1L110 11C110 11.5522847 109.552285 12 109 12L97 12C96.4477153 12 96 11.5522847 96 11L96 1C96 .44771525 96.4477153 1.01453063e-16 97 0ZM113 0 125 0C125.552285-1.01453063e-16 126 .44771525 126 1L126 11C126 11.5522847 125.552285 12 125 12L113 12C112.447715 12 112 11.5522847 112 11L112 1C112 .44771525 112.447715 1.01453063e-16 113 0ZM129 0 141 0C141.552285-1.01453063e-16 142 .44771525 142 1L142 11C142 11.5522847 141.552285 12 141 12L129 12C128.447715 12 128 11.5522847 128 11L128 1C128 .44771525 128.447715 1.01453063e-16 129 0ZM145 0 157 0C157.552285-1.01453063e-16 158 .44771525 158 1L158 11C158 11.5522847 157.552285 12 157 12L145 12C144.447715 12 144 11.5522847 144 11L144 1C144 .44771525 144.447715 1.01453063e-16 145 0ZM161 0 173 0C173.552285-1.01453063e-16 174 .44771525 174 1L174 11C174 11.5522847 173.552285 12 173 12L161 12C160.447715 12 160 11.5522847 160 11L160 1C160 .44771525 160.447715 1.01453063e-16 161 0Z" transform="translate(13 12)" fill="#24253D" fill-rule="nonzero"/><path d="M209.833429,26 C227.497049,26 240.838975,14.0537882 242.449043,12.8692065 C244.05911,11.6846247 243.237755,10 241.66033,10 L232.979269,10.0228698 C226.158638,12.3416508 213.319731,21.6376439 209.833429,26 Z" fill="#24253D" fill-rule="nonzero" transform="matrix(-1 0 0 1 453.157 0)"/><rect fill="#24253D" y="2" width="1" height="50"/></g><g transform="translate(696)"><g transform="translate(175.771 43)" fill-rule="nonzero"><rect fill="#24253D" width="36" height="8"/><g transform="translate(6 3)"><g transform="translate(14)"><circle fill="#585A69" cx="5" cy="5" r="5"/><circle fill="#91929E" cx="5" cy="5" r="2"/></g><circle fill="#585A69" cx="5" cy="5" r="5"/><circle fill="#91929E" cx="5" cy="5" r="2"/></g></g><g transform="translate(14 43)" fill-rule="nonzero"><rect fill="#24253D" transform="matrix(-1 0 0 1 36 0)" width="36" height="8"/><g transform="translate(6 3)"><g transform="matrix(-1 0 0 1 10 0)"><circle fill="#585A69" cx="5" cy="5" r="5"/><circle fill="#91929E" cx="5" cy="5" r="2"/></g><g transform="matrix(-1 0 0 1 24 0)"><circle fill="#585A69" cx="5" cy="5" r="5"/><circle fill="#91929E" cx="5" cy="5" r="2"/></g></g></g><path d="M45.8840111 8 174.002407 8C174.570316 8 175.024642 7.67123288 175.251805 7.23287671L179 0 41 0 44.7481945 7.23287671C44.9753578 7.78082192 45.4296844 8 45.8840111 8ZM206.192413 7.22222222C206.454438 7.66666667 206.97849 8 207.633555 8L222 8 222 0 202 0 206.192413 7.22222222ZM0 0 0 8 11.9890565 8C12.548988 8 12.9969332 7.67750325 13.2209058 7.24750759L16.9164538.152579107 0 0Z" transform="matrix(-1 0 0 1 223 44)" fill="#91929E" fill-rule="nonzero"/><polygon fill="#FFF" fill-rule="nonzero" transform="matrix(-1 0 0 1 224 0)" points="1 1.5 80.6601783 1.5 81 0 161 0 161.109662 1.5 223 1.5 223 45.3027885 1 45.3027885"/><polygon points="0 16 222 16 222 1.77635684e-15 0 0" transform="matrix(-1 0 0 1 223 10)" fill="#008576" fill-rule="nonzero"/><polygon points="0 0 222 0 222 6 0 6" transform="matrix(-1 0 0 1 223 32)" fill="#D30741" fill-rule="nonzero"/><path d="M17 0 29 0C29.5522847-1.01453063e-16 30 .44771525 30 1L30 11C30 11.5522847 29.5522847 12 29 12L17 12C16.4477153 12 16 11.5522847 16 11L16 1C16 .44771525 16.4477153 1.01453063e-16 17 0ZM33 0 45 0C45.5522847-1.01453063e-16 46 .44771525 46 1L46 11C46 11.5522847 45.5522847 12 45 12L33 12C32.4477153 12 32 11.5522847 32 11L32 1C32 .44771525 32.4477153 1.01453063e-16 33 0ZM49 0 61 0C61.5522847-1.01453063e-16 62 .44771525 62 1L62 11C62 11.5522847 61.5522847 12 61 12L49 12C48.4477153 12 48 11.5522847 48 11L48 1C48 .44771525 48.4477153 1.01453063e-16 49 0ZM65 0 77 0C77.5522847-1.01453063e-16 78 .44771525 78 1L78 11C78 11.5522847 77.5522847 12 77 12L65 12C64.4477153 12 64 11.5522847 64 11L64 1C64 .44771525 64.4477153 1.01453063e-16 65 0ZM81 0 93 0C93.5522847-1.01453063e-16 94 .44771525 94 1L94 11C94 11.5522847 93.5522847 12 93 12L81 12C80.4477153 12 80 11.5522847 80 11L80 1C80 .44771525 80.4477153 1.01453063e-16 81 0ZM97 0 109 0C109.552285-1.01453063e-16 110 .44771525 110 1L110 11C110 11.5522847 109.552285 12 109 12L97 12C96.4477153 12 96 11.5522847 96 11L96 1C96 .44771525 96.4477153 1.01453063e-16 97 0ZM113 0 125 0C125.552285-1.01453063e-16 126 .44771525 126 1L126 11C126 11.5522847 125.552285 12 125 12L113 12C112.447715 12 112 11.5522847 112 11L112 1C112 .44771525 112.447715 1.01453063e-16 113 0ZM129 0 141 0C141.552285-1.01453063e-16 142 .44771525 142 1L142 11C142 11.5522847 141.552285 12 141 12L129 12C128.447715 12 128 11.5522847 128 11L128 1C128 .44771525 128.447715 1.01453063e-16 129 0ZM145 0 157 0C157.552285-1.01453063e-16 158 .44771525 158 1L158 11C158 11.5522847 157.552285 12 157 12L145 12C144.447715 12 144 11.5522847 144 11L144 1C144 .44771525 144.447715 1.01453063e-16 145 0ZM161 0 173 0C173.552285-1.01453063e-16 174 .44771525 174 1L174 11C174 11.5522847 173.552285 12 173 12L161 12C160.447715 12 160 11.5522847 160 11L160 1C160 .44771525 160.447715 1.01453063e-16 161 0Z" transform="translate(17 12)" fill="#24253D" fill-rule="nonzero"/><rect fill="#24253D" y="2" width="1" height="50"/><rect fill="#24253D" x="223" y="2" width="1" height="50"/></g><g transform="translate(472)"><g transform="translate(175.771 43)" fill-rule="nonzero"><rect fill="#24253D" width="36" height="8"/><g transform="translate(6 3)"><g transform="translate(14)"><circle fill="#585A69" cx="5" cy="5" r="5"/><circle fill="#91929E" cx="5" cy="5" r="2"/></g><circle fill="#585A69" cx="5" cy="5" r="5"/><circle fill="#91929E" cx="5" cy="5" r="2"/></g></g><g transform="translate(14 43)" fill-rule="nonzero"><rect fill="#24253D" transform="matrix(-1 0 0 1 36 0)" width="36" height="8"/><g transform="translate(6 3)"><g transform="matrix(-1 0 0 1 10 0)"><circle fill="#585A69" cx="5" cy="5" r="5"/><circle fill="#91929E" cx="5" cy="5" r="2"/></g><g transform="matrix(-1 0 0 1 24 0)"><circle fill="#585A69" cx="5" cy="5" r="5"/><circle fill="#91929E" cx="5" cy="5" r="2"/></g></g></g><path d="M45.8840111 8 174.002407 8C174.570316 8 175.024642 7.67123288 175.251805 7.23287671L179 0 41 0 44.7481945 7.23287671C44.9753578 7.78082192 45.4296844 8 45.8840111 8ZM206.192413 7.22222222C206.454438 7.66666667 206.97849 8 207.633555 8L222 8 222 0 202 0 206.192413 7.22222222ZM0 0 0 8 11.9890565 8C12.548988 8 12.9969332 7.67750325 13.2209058 7.24750759L16.9164538.152579107 0 0Z" transform="matrix(-1 0 0 1 223 44)" fill="#91929E" fill-rule="nonzero"/><polygon fill="#FFF" fill-rule="nonzero" transform="matrix(-1 0 0 1 224 0)" points="1 1.5 80.6601783 1.5 81 0 161 0 161.109662 1.5 223 1.5 223 45.3027885 1 45.3027885"/><polygon points="0 16 222 16 222 1.77635684e-15 0 0" transform="matrix(-1 0 0 1 223 10)" fill="#008576" fill-rule="nonzero"/><polygon points="0 0 222 0 222 6 0 6" transform="matrix(-1 0 0 1 223 32)" fill="#D30741" fill-rule="nonzero"/><path d="M17 0 29 0C29.5522847-1.01453063e-16 30 .44771525 30 1L30 11C30 11.5522847 29.5522847 12 29 12L17 12C16.4477153 12 16 11.5522847 16 11L16 1C16 .44771525 16.4477153 1.01453063e-16 17 0ZM33 0 45 0C45.5522847-1.01453063e-16 46 .44771525 46 1L46 11C46 11.5522847 45.5522847 12 45 12L33 12C32.4477153 12 32 11.5522847 32 11L32 1C32 .44771525 32.4477153 1.01453063e-16 33 0ZM49 0 61 0C61.5522847-1.01453063e-16 62 .44771525 62 1L62 11C62 11.5522847 61.5522847 12 61 12L49 12C48.4477153 12 48 11.5522847 48 11L48 1C48 .44771525 48.4477153 1.01453063e-16 49 0ZM65 0 77 0C77.5522847-1.01453063e-16 78 .44771525 78 1L78 11C78 11.5522847 77.5522847 12 77 12L65 12C64.4477153 12 64 11.5522847 64 11L64 1C64 .44771525 64.4477153 1.01453063e-16 65 0ZM81 0 93 0C93.5522847-1.01453063e-16 94 .44771525 94 1L94 11C94 11.5522847 93.5522847 12 93 12L81 12C80.4477153 12 80 11.5522847 80 11L80 1C80 .44771525 80.4477153 1.01453063e-16 81 0ZM97 0 109 0C109.552285-1.01453063e-16 110 .44771525 110 1L110 11C110 11.5522847 109.552285 12 109 12L97 12C96.4477153 12 96 11.5522847 96 11L96 1C96 .44771525 96.4477153 1.01453063e-16 97 0ZM113 0 125 0C125.552285-1.01453063e-16 126 .44771525 126 1L126 11C126 11.5522847 125.552285 12 125 12L113 12C112.447715 12 112 11.5522847 112 11L112 1C112 .44771525 112.447715 1.01453063e-16 113 0ZM129 0 141 0C141.552285-1.01453063e-16 142 .44771525 142 1L142 11C142 11.5522847 141.552285 12 141 12L129 12C128.447715 12 128 11.5522847 128 11L128 1C128 .44771525 128.447715 1.01453063e-16 129 0ZM145 0 157 0C157.552285-1.01453063e-16 158 .44771525 158 1L158 11C158 11.5522847 157.552285 12 157 12L145 12C144.447715 12 144 11.5522847 144 11L144 1C144 .44771525 144.447715 1.01453063e-16 145 0ZM161 0 173 0C173.552285-1.01453063e-16 174 .44771525 174 1L174 11C174 11.5522847 173.552285 12 173 12L161 12C160.447715 12 160 11.5522847 160 11L160 1C160 .44771525 160.447715 1.01453063e-16 161 0Z" transform="translate(17 12)" fill="#24253D" fill-rule="nonzero"/><rect fill="#24253D" y="2" width="1" height="50"/><rect fill="#24253D" x="223" y="2" width="1" height="50"/></g><g transform="translate(248)"><g transform="translate(175.771 43)" fill-rule="nonzero"><rect fill="#24253D" width="36" height="8"/><g transform="translate(6 3)"><g transform="translate(14)"><circle fill="#585A69" cx="5" cy="5" r="5"/><circle fill="#91929E" cx="5" cy="5" r="2"/></g><circle fill="#585A69" cx="5" cy="5" r="5"/><circle fill="#91929E" cx="5" cy="5" r="2"/></g></g><g transform="translate(14 43)" fill-rule="nonzero"><rect fill="#24253D" transform="matrix(-1 0 0 1 36 0)" width="36" height="8"/><g transform="translate(6 3)"><g transform="matrix(-1 0 0 1 10 0)"><circle fill="#585A69" cx="5" cy="5" r="5"/><circle fill="#91929E" cx="5" cy="5" r="2"/></g><g transform="matrix(-1 0 0 1 24 0)"><circle fill="#585A69" cx="5" cy="5" r="5"/><circle fill="#91929E" cx="5" cy="5" r="2"/></g></g></g><path d="M45.8840111 8 174.002407 8C174.570316 8 175.024642 7.67123288 175.251805 7.23287671L179 0 41 0 44.7481945 7.23287671C44.9753578 7.78082192 45.4296844 8 45.8840111 8ZM206.192413 7.22222222C206.454438 7.66666667 206.97849 8 207.633555 8L222 8 222 0 202 0 206.192413 7.22222222ZM0 0 0 8 11.9890565 8C12.548988 8 12.9969332 7.67750325 13.2209058 7.24750759L16.9164538.152579107 0 0Z" transform="matrix(-1 0 0 1 223 44)" fill="#91929E" fill-rule="nonzero"/><polygon fill="#FFF" fill-rule="nonzero" transform="matrix(-1 0 0 1 224 0)" points="1 1.5 80.6601783 1.5 81 0 161 0 161.109662 1.5 223 1.5 223 45.3027885 1 45.3027885"/><polygon points="0 16 222 16 222 1.77635684e-15 0 0" transform="matrix(-1 0 0 1 223 10)" fill="#008576" fill-rule="nonzero"/><polygon points="0 0 222 0 222 6 0 6" transform="matrix(-1 0 0 1 223 32)" fill="#D30741" fill-rule="nonzero"/><path d="M17 0 29 0C29.5522847-1.01453063e-16 30 .44771525 30 1L30 11C30 11.5522847 29.5522847 12 29 12L17 12C16.4477153 12 16 11.5522847 16 11L16 1C16 .44771525 16.4477153 1.01453063e-16 17 0ZM33 0 45 0C45.5522847-1.01453063e-16 46 .44771525 46 1L46 11C46 11.5522847 45.5522847 12 45 12L33 12C32.4477153 12 32 11.5522847 32 11L32 1C32 .44771525 32.4477153 1.01453063e-16 33 0ZM49 0 61 0C61.5522847-1.01453063e-16 62 .44771525 62 1L62 11C62 11.5522847 61.5522847 12 61 12L49 12C48.4477153 12 48 11.5522847 48 11L48 1C48 .44771525 48.4477153 1.01453063e-16 49 0ZM65 0 77 0C77.5522847-1.01453063e-16 78 .44771525 78 1L78 11C78 11.5522847 77.5522847 12 77 12L65 12C64.4477153 12 64 11.5522847 64 11L64 1C64 .44771525 64.4477153 1.01453063e-16 65 0ZM81 0 93 0C93.5522847-1.01453063e-16 94 .44771525 94 1L94 11C94 11.5522847 93.5522847 12 93 12L81 12C80.4477153 12 80 11.5522847 80 11L80 1C80 .44771525 80.4477153 1.01453063e-16 81 0ZM97 0 109 0C109.552285-1.01453063e-16 110 .44771525 110 1L110 11C110 11.5522847 109.552285 12 109 12L97 12C96.4477153 12 96 11.5522847 96 11L96 1C96 .44771525 96.4477153 1.01453063e-16 97 0ZM113 0 125 0C125.552285-1.01453063e-16 126 .44771525 126 1L126 11C126 11.5522847 125.552285 12 125 12L113 12C112.447715 12 112 11.5522847 112 11L112 1C112 .44771525 112.447715 1.01453063e-16 113 0ZM129 0 141 0C141.552285-1.01453063e-16 142 .44771525 142 1L142 11C142 11.5522847 141.552285 12 141 12L129 12C128.447715 12 128 11.5522847 128 11L128 1C128 .44771525 128.447715 1.01453063e-16 129 0ZM145 0 157 0C157.552285-1.01453063e-16 158 .44771525 158 1L158 11C158 11.5522847 157.552285 12 157 12L145 12C144.447715 12 144 11.5522847 144 11L144 1C144 .44771525 144.447715 1.01453063e-16 145 0ZM161 0 173 0C173.552285-1.01453063e-16 174 .44771525 174 1L174 11C174 11.5522847 173.552285 12 173 12L161 12C160.447715 12 160 11.5522847 160 11L160 1C160 .44771525 160.447715 1.01453063e-16 161 0Z" transform="translate(17 12)" fill="#24253D" fill-rule="nonzero"/><rect fill="#24253D" y="2" width="1" height="50"/><rect fill="#24253D" x="223" y="2" width="1" height="50"/></g><g transform="matrix(-1 0 0 1 248 0)"><g transform="translate(171.771 43)" fill-rule="nonzero"><rect fill="#24253D" width="36" height="8"/><g transform="translate(6 3)"><g transform="translate(14)"><circle fill="#585A69" cx="5" cy="5" r="5"/><circle fill="#91929E" cx="5" cy="5" r="2"/></g><circle fill="#585A69" cx="5" cy="5" r="5"/><circle fill="#91929E" cx="5" cy="5" r="2"/></g></g><g transform="translate(10 43)" fill-rule="nonzero"><rect fill="#24253D" transform="matrix(-1 0 0 1 36 0)" width="36" height="8"/><g transform="translate(6 3)"><g transform="matrix(-1 0 0 1 10 0)"><circle fill="#585A69" cx="5" cy="5" r="5"/><circle fill="#91929E" cx="5" cy="5" r="2"/></g><g transform="matrix(-1 0 0 1 24 0)"><circle fill="#585A69" cx="5" cy="5" r="5"/><circle fill="#91929E" cx="5" cy="5" r="2"/></g></g></g><path d="M56.1919155 8 184.310312 8C184.87822 8 185.332547 7.67123288 185.55971 7.23287671L189.307904 0 51.3079044 0 55.0560989 7.23287671C55.2832622 7.78082192 55.7375889 8 56.1919155 8ZM216.500317 7.22222222C216.762343 7.66666667 217.286394 8 217.941459 8L228.307904 8 228.307904 0 212.307904 0 216.500317 7.22222222ZM0 0C1.86190257 1.09988368 18.0137011 8 19.3575368 8 20.2534272 8 21.2332352 8 22.2969609 8 22.8568924 8 23.3048376 7.67750325 23.5288102 7.24750759L27.2243582.152579107C13.529608.152579107 4.45482195.101719405 0 0Z" transform="matrix(-1 0 0 1 229.308 44)" fill="#91929E" fill-rule="nonzero"/><path d="M1,34.295352 C1,23.4013943 36.9813407,1.5 58.5888044,1.5 L105.660178,1.5 L106,0 L186,0 L186.109662,1.5 L248,1.5 L248,45.3027885 L17.9168199,45.3027885 C14.894014,45.1893098 1,45.1893098 1,34.295352 Z" fill="#FFF" fill-rule="nonzero" transform="matrix(-1 0 0 1 249 0)"/><path d="M1.69597369,16 L220,16 L220,0 L22.7585132,0 C21.1900262,0 19.6215392,0.444444444 18.2771218,1.33333333 L0.799695418,12.8888889 C-0.656756781,13.7777778 0.0154519259,16 1.69597369,16 Z" transform="matrix(-1 0 0 1 221 10)" fill="#008576" fill-rule="nonzero"/><path d="M26.9972592 3C26.9972592 1.375 28.2273736 0 29.6811452 0L246.997259 0 246.997259 6 29.6811452 6C28.2273736 6 26.9972592 4.625 26.9972592 3ZM20.1937765 0 .509915956 0C-.214868643 1.75584606-.123543663 4.43110565.509915956 6 4.19137634 6 10.7526632 6 20.1937765 6 21.7138158 6 23 4.625 23 3 23 1.25 21.7138158 0 20.1937765 0Z" transform="matrix(-1 0 0 1 247.997 32)" fill="#D30741" fill-rule="nonzero"/><path d="M17 0 29 0C29.5522847-1.01453063e-16 30 .44771525 30 1L30 11C30 11.5522847 29.5522847 12 29 12L17 12C16.4477153 12 16 11.5522847 16 11L16 1C16 .44771525 16.4477153 1.01453063e-16 17 0ZM33 0 45 0C45.5522847-1.01453063e-16 46 .44771525 46 1L46 11C46 11.5522847 45.5522847 12 45 12L33 12C32.4477153 12 32 11.5522847 32 11L32 1C32 .44771525 32.4477153 1.01453063e-16 33 0ZM49 0 61 0C61.5522847-1.01453063e-16 62 .44771525 62 1L62 11C62 11.5522847 61.5522847 12 61 12L49 12C48.4477153 12 48 11.5522847 48 11L48 1C48 .44771525 48.4477153 1.01453063e-16 49 0ZM65 0 77 0C77.5522847-1.01453063e-16 78 .44771525 78 1L78 11C78 11.5522847 77.5522847 12 77 12L65 12C64.4477153 12 64 11.5522847 64 11L64 1C64 .44771525 64.4477153 1.01453063e-16 65 0ZM81 0 93 0C93.5522847-1.01453063e-16 94 .44771525 94 1L94 11C94 11.5522847 93.5522847 12 93 12L81 12C80.4477153 12 80 11.5522847 80 11L80 1C80 .44771525 80.4477153 1.01453063e-16 81 0ZM97 0 109 0C109.552285-1.01453063e-16 110 .44771525 110 1L110 11C110 11.5522847 109.552285 12 109 12L97 12C96.4477153 12 96 11.5522847 96 11L96 1C96 .44771525 96.4477153 1.01453063e-16 97 0ZM113 0 125 0C125.552285-1.01453063e-16 126 .44771525 126 1L126 11C126 11.5522847 125.552285 12 125 12L113 12C112.447715 12 112 11.5522847 112 11L112 1C112 .44771525 112.447715 1.01453063e-16 113 0ZM129 0 141 0C141.552285-1.01453063e-16 142 .44771525 142 1L142 11C142 11.5522847 141.552285 12 141 12L129 12C128.447715 12 128 11.5522847 128 11L128 1C128 .44771525 128.447715 1.01453063e-16 129 0ZM145 0 157 0C157.552285-1.01453063e-16 158 .44771525 158 1L158 11C158 11.5522847 157.552285 12 157 12L145 12C144.447715 12 144 11.5522847 144 11L144 1C144 .44771525 144.447715 1.01453063e-16 145 0ZM161 0 173 0C173.552285-1.01453063e-16 174 .44771525 174 1L174 11C174 11.5522847 173.552285 12 173 12L161 12C160.447715 12 160 11.5522847 160 11L160 1C160 .44771525 160.447715 1.01453063e-16 161 0Z" transform="translate(13 12)" fill="#24253D" fill-rule="nonzero"/><path d="M209.833429,26 C227.497049,26 240.838975,14.0537882 242.449043,12.8692065 C244.05911,11.6846247 243.237755,10 241.66033,10 L232.979269,10.0228698 C226.158638,12.3416508 213.319731,21.6376439 209.833429,26 Z" fill="#24253D" fill-rule="nonzero" transform="matrix(-1 0 0 1 453.157 0)"/><rect fill="#24253D" y="2" width="1" height="50"/></g></g></svg>